# xmcd CD database file
#
# Track frame offsets:
#	150
#	19962
#	40555
#	60267
#	77667
#	100235
#	119600
#	140720
#	162592
#	182047
#	199680
#	219597
#	238350
#	256882
#	274102
#	289902
#	307497
#	323642
#
# Disc length: 4543 seconds
#
# Revision: 8
# Processed by: cddbd v1.5.2PL0 Copyright (c) Steve Scherf et al.
# Submitted via: jetAudio 7
#
DISCID=1311bd12
DTITLE=Mariah Carey - #1's
DYEAR=1900
DGENRE=R&B
TTITLE0=Sweetheart
TTITLE1=When You Believe
TTITLE2=Whenever You Call
TTITLE3=My All
TTITLE4=Honey
TTITLE5=Always Be My Baby
TTITLE6=One Sweet Day
TTITLE7=Fantasy
TTITLE8=Hero
TTITLE9=Dreamlover
TTITLE10=I'll Be There
TTITLE11=Emotions
TTITLE12=Someday
TTITLE13=Love Takes Time
TTITLE14=Vision Of Love
TTITLE15=I Still Believe
TTITLE16=Without You
TTITLE17=Do You Know Where You're Going To (Theme From Mahogany)
EXTD=ID3G:   0
EXTT0=
EXTT1=
EXTT2=
EXTT3=
EXTT4=
EXTT5=
EXTT6=
EXTT7=
EXTT8=
EXTT9=
EXTT10=
EXTT11=
EXTT12=
EXTT13=
EXTT14=
EXTT15=
EXTT16=
EXTT17=
PLAYORDER=
